<?xml version="1.0" encoding="UTF-8"?>
<svg id="uuid-afdec533-ba42-41b2-a694-e125c281d7d9" data-name="uuid-7f978562-4bc8-48f3-b57c-337e90baf833" xmlns="http://www.w3.org/2000/svg" viewBox="0 0 293.6 384.3">
  <defs>
    <style>
      .uuid-da22a2e3-8902-4b61-a3fd-0590c1fd24b2 {
        fill: #fff;
      }
    </style>
  </defs>
  <path class="uuid-da22a2e3-8902-4b61-a3fd-0590c1fd24b2" d="M256.9,128.1h-18.4v-36.6C238.6,41,197.5,0,146.8,0S55.1,41,55.1,91.5v36.6h-18.4c-20.2,0-36.7,16.5-36.7,36.6v183c0,20.1,16.5,36.6,36.7,36.6h220.2c20.2,0,36.7-16.5,36.7-36.6v-183c0-20.1-16.5-36.6-36.7-36.6ZM146.8,292.8c-20.2,0-36.7-16.5-36.7-36.6s16.5-36.6,36.7-36.6,36.7,16.5,36.7,36.6-16.5,36.6-36.7,36.6ZM91.8,128.1v-36.6c0-30.4,24.6-54.9,55.1-54.9s55.1,24.5,55.1,54.9v36.6h-110.1Z"/>
</svg>