<?xml version="1.0" encoding="UTF-8"?>
<svg id="uuid-dd171bb9-a521-4ecc-9267-46918a091253" data-name="uuid-7f978562-4bc8-48f3-b57c-337e90baf833" xmlns="http://www.w3.org/2000/svg" viewBox="0 0 383.09 383.89">
  <defs>
    <style>
      .uuid-62cd43df-b40a-4ca2-a0cc-322bf9dba46f {
        fill: #fff;
      }
    </style>
  </defs>
  <path class="uuid-62cd43df-b40a-4ca2-a0cc-322bf9dba46f" d="M149.64,383.86c-.84-1.33-2.36-1.14-3.58-1.56-13.87-4.8-23.67-20.36-19.47-32.82,1.84-5.46,2.69-9.64-.03-15.05-2.48-4.93-.73-10.31,2.48-14.81.98-1.37.95-2.1,0-3.47-4.11-5.94-4.57-12.27-1.16-18.69.79-1.49.72-2.33-.5-3.47-2.34-2.18-3.59-5.07-4.47-8.08-8.1-27.78-21.13-53.04-37.92-76.57-38.91-54.5-32.23-126.25,16.02-172.73C121.42,16.94,145.88,5.2,174.02,1.28c1.59-.22,3.5.22,4.8-1.28h24.69c4.78,1.65,9.86,1.63,14.75,2.72,7.43,1.65,14.68,3.8,21.77,6.5,4.44,1.69,6.3,4.73,5.11,8.16-1.28,3.7-4.63,4.88-9.29,3.09-17.84-6.88-36.28-10.13-55.31-7.83-48.86,5.89-83.33,31.67-100.94,77.63-14.77,38.56-9.85,76.06,13.82,110.02,17.75,25.47,32.25,52.31,41,82.15,1.12,3.82,3.35,5.57,7.3,5.49,4.99-.1,9.98-.22,14.96.05,3.04.16,3.1-.95,2.49-3.37-6.58-26.09-13.08-52.21-19.6-78.32-.48-1.93-.85-3.9-1.46-5.8-.89-2.78-.54-5.23,1.71-7.14,2.43-2.06,4.99-1.62,7.65-.25,5.86,3.02,11.83,5.82,17.63,8.94,1.91,1.03,3.32.86,5.12-.08,5.62-2.94,11.39-5.6,16.97-8.62,3.07-1.66,5.76-1.57,8.79.05,5.7,3.05,11.57,5.78,17.29,8.79,1.62.85,2.89.81,4.46,0,5.96-3.1,11.99-6.05,17.96-9.13,2.52-1.3,4.99-1.72,7.35.14,2.46,1.95,2.64,4.46,1.89,7.42-6.99,27.79-13.89,55.6-20.81,83.41-.3,1.19-.54,2.4-.86,3.88,6.74,0,13.21.13,19.67-.05,4-.11,5.15-3.33,6.11-6.55,5.13-17.38,12.07-34,20.77-49.89,5.7-10.41,12.31-20.21,19.17-29.87,15.06-21.2,22.76-44.86,22.15-70.85-.91-39.07-17.1-70.66-47.87-94.72-.88-.69-1.81-1.33-2.7-2.01-3.43-2.6-4.24-6.12-2.09-9.01,2.12-2.85,5.52-3.2,8.94-.79,9.22,6.5,17.57,14,24.71,22.74,39.2,47.95,41.78,111.71,6.04,162.28-16.77,23.73-29.97,49.03-38.11,76.95-1.03,3.55-4.05,6.2-5.14,9.32-.95,2.71,2.47,6.14,2.47,9.73s-.76,7.22-2.9,10.26c-1.19,1.69-1.46,2.79-.15,4.77,4.28,6.45,4.02,13.13-.05,19.69-.58.94-1.9,1.56-.71,3.15,5.91,7.98,4.44,16.37.44,24.39-4.36,8.73-11.5,14.23-21.36,15.78-.27.04-.49.44-.73.67h-82.31l.03-.03ZM229.7,209.91c-3.32.75-6.13,2.65-9.02,4.26-3.48,1.93-6.59,2.08-10.16.08-5.42-3.03-11.12-5.55-16.59-8.49-1.77-.95-3.09-.85-4.79.04-5.83,3.05-11.77,5.9-17.61,8.94-2.66,1.39-5.07,1.39-7.79.04-3.41-1.7-6.58-3.97-10.38-4.84-.13-.16-.26-.32-.39-.48-.03.12-.12.26-.08.35.14.35.33.35.54.03-.81.65-.22,1.4-.07,2.03,6.11,24.63,12.28,49.24,18.31,73.88.55,2.26,1.8,2.15,3.45,2.15,10.83-.03,21.66-.15,32.49.08,2.79.06,3.51-1.02,4.08-3.35,5.14-20.89,10.45-41.75,15.53-62.66.97-4,2.72-7.89,2.41-12.16.17.02.35.04.52.06v-.34c-.16.12-.31.25-.46.37h.01ZM191.36,347.87c-15.44,0-30.88-.02-46.32,0-5.63,0-8.12,3.06-7.21,8.67,1.43,8.75,8.73,15.24,17.65,15.27,24.03.09,48.06.09,72.1,0,8.81-.03,15.92-6.21,17.59-14.89,1.15-5.95-1.39-9.05-7.48-9.06-15.44-.02-30.88,0-46.32,0h0ZM191.96,299.89h-45.58c-.87,0-1.75-.04-2.61.02-3.58.23-5.99,2.56-6.07,5.84-.08,3.4,2.42,5.9,6.16,6.12.74.04,1.49.01,2.24.01h90.79c1.12,0,2.27.12,3.35-.09,3.2-.64,5.13-2.64,5.1-5.95-.03-3.3-1.98-5.28-5.19-5.86-1.09-.2-2.24-.08-3.36-.08h-44.83ZM191.62,335.87c15.57,0,31.14-.02,46.7.02,2.84,0,5.12-.79,6.45-3.49,1.05-2.13.76-4.13-.55-5.99-1.42-2.03-3.51-2.54-5.89-2.54-31.14.03-62.27.02-93.41.02-.75,0-1.52-.06-2.23.1-3.01.69-4.88,2.57-4.97,5.7-.09,3.32,1.79,5.35,4.96,6.07,1.07.24,2.23.11,3.35.12h45.59Z"/>
  <path class="uuid-62cd43df-b40a-4ca2-a0cc-322bf9dba46f" d="M383.09,152.19c-2.09,2.99-4.91,3.96-8.56,3.82-6.7-.25-13.42-.05-20.13-.08-4.58-.02-7.33-2.42-7.21-6.18.12-3.62,2.76-5.78,7.21-5.8,6.71-.03,13.43.17,20.13-.08,3.65-.14,6.47.81,8.56,3.82v4.5h0Z"/>
  <path class="uuid-62cd43df-b40a-4ca2-a0cc-322bf9dba46f" d="M358.23,57.11c-.24,2.24-1.23,4.03-3.21,5.18-6.76,3.93-13.49,7.92-20.32,11.73-3.31,1.85-6.72.84-8.39-2.13-1.68-2.99-.78-6.28,2.56-8.27,6.61-3.94,13.25-7.84,19.97-11.58,4.49-2.5,9.49.3,9.38,5.06h.01Z"/>
  <path class="uuid-62cd43df-b40a-4ca2-a0cc-322bf9dba46f" d="M331.38,224.91c1.46-.09,2.66.56,3.86,1.24,6.35,3.65,12.73,7.27,19.05,10.99,3.78,2.22,4.91,5.62,3.1,8.75s-5.25,3.8-9.08,1.62c-6.59-3.75-13.16-7.52-19.68-11.38-2.63-1.56-3.78-3.98-2.81-7.01.84-2.64,2.81-4.01,5.57-4.2h-.01Z"/>
  <path class="uuid-62cd43df-b40a-4ca2-a0cc-322bf9dba46f" d="M30.71,248.93c-2.58-.19-4.54-1.43-5.51-4.07-1-2.71-.25-5.19,2.02-6.58,7.29-4.45,14.7-8.75,22.2-12.84,2.76-1.51,5.39-.34,7.13,2.2,1.68,2.45,1.73,5.47-.57,7.12-7.55,5.41-15.71,9.87-24.01,14.04-.31.16-.73.09-1.25.13h-.01Z"/>
  <path class="uuid-62cd43df-b40a-4ca2-a0cc-322bf9dba46f" d="M51.55,74.99c-1.6.03-2.88-.78-4.17-1.52-6.13-3.54-12.28-7.06-18.39-10.63-3.9-2.28-5.1-5.44-3.39-8.64,1.78-3.32,5.29-4.04,9.3-1.76,6.48,3.68,12.93,7.42,19.36,11.19,2.65,1.55,3.91,3.9,3.06,6.93-.79,2.83-2.89,4.23-5.78,4.43h0Z"/>
  <path class="uuid-62cd43df-b40a-4ca2-a0cc-322bf9dba46f" d="M18.02,143.95c3.85,0,7.71-.08,11.56.02,3.79.1,6.29,2.55,6.3,5.96,0,3.39-2.5,5.94-6.27,5.98-7.83.09-15.67.1-23.5,0-3.71-.05-6.21-2.74-6.11-6.14.1-3.26,2.51-5.68,6.08-5.79,3.97-.12,7.96-.03,11.93-.03h.01Z"/>
  <path class="uuid-62cd43df-b40a-4ca2-a0cc-322bf9dba46f" d="M153.43,209.84c-.2.32-.4.32-.54-.03-.04-.09.05-.23.08-.35.13.16.26.32.39.48l.07-.1h0Z"/>
  <path class="uuid-62cd43df-b40a-4ca2-a0cc-322bf9dba46f" d="M229.7,209.91l.45-.37v.34c-.16-.02-.33-.04-.51-.06l.06.1h0Z"/>
</svg>