<?xml version="1.0" encoding="UTF-8"?>
<svg id="uuid-8ed1f673-29f9-48ed-885c-a517b785ece9" data-name="uuid-7829d1a0-a4d0-45bb-9c8c-cb8256e54c16" xmlns="http://www.w3.org/2000/svg" viewBox="0 0 359.2 359.2">
  <defs>
    <style>
      .uuid-09fea218-ec3e-46b7-bf19-b435374c1750 {
        fill: #fff;
      }
    </style>
  </defs>
  <path class="uuid-09fea218-ec3e-46b7-bf19-b435374c1750" d="M359.2,180v170.6c0,6.9-1.7,8.6-8.6,8.6h-222.2c-6.9,0-8.7-1.7-8.7-8.5v-78.9c0-7.3,2.2-8.6,10.8-8.3,13.2.6,26.5.8,39.8,0,6.9-.4,9.3,1.5,9.3,7.6,0,8.5.1,17,0,25.4,0,2.4.6,2.9,2.9,2.9,38,0,76.1,0,114.1,0,2.3,0,2.9-.6,2.9-2.9,0-77.9,0-155.9,0-233.8,0-2.3-.5-2.9-2.9-2.9-38,0-76.1,0-114.1,0-2.3,0-2.9.5-2.9,2.8.2,8.6,0,17.2,0,25.8,0,5.7-2.7,7.7-9.1,7.2-14.1-1.1-28.2-.7-42.2,0-6,.3-8.5-1.7-8.5-7.2,0-27.1,0-54.1,0-81.2,0-5.3,2.1-7.4,7.6-7.4h224.1c5.8,0,7.8,2,7.8,7.9v172.1h0ZM347.2,179.5c0-54.7,0-109.5,0-164.2,0-1.9-1.6-3.5-3.5-3.4-10.8.2-21.6,0-32.5,0-58.7,0-117.4,0-176.2,0-2.7,0-3.5.5-3.5,3.4.1,21.8,0,43.6,0,65.5,0,2.2-.1,3.5,3.9,3,9.3-1.1,18.7-1,28,0,3.9.4,4.1-.6,4.1-2.9,0-8.5,0-17,0-25.4,0-5.4,2.1-7.5,7.4-7.5,43,0,86,0,129,0,5.1,0,7.2,2.2,7.2,7.3,0,82.9,0,165.8,0,248.7,0,5.1-2.2,7.3-7.3,7.3-43,0-86,0-129,0-5.3,0-7.3-2.1-7.3-7.6,0-8.4-.1-16.7,0-25.1,0-3.1-.7-3.7-5.5-3.2-8.4,1-16.8,1-25.1,0-5.1-.6-5.4.4-5.4,3.4,0,21.6.1,43.1,0,64.7,0,3.3,1,3.7,3.9,3.7,69.3,0,138.6,0,208,0,3.2,0,3.8-.9,3.8-3.9-.1-54.6,0-109.2,0-163.8h0Z"/>
  <path class="uuid-09fea218-ec3e-46b7-bf19-b435374c1750" d="M94.7,215.5H8.3c-6.4,0-8.3-1.8-8.3-8.1v-55.7c0-6.1,1.9-7.9,8.1-7.9,57.9,0,115.7,0,173.6,0,3.4,0,4.1-.9,4-4.1-.2-10.2,0-20.4-.1-30.7,0-3,.7-5.4,3.7-6.7,3-1.3,5.2,0,7.4,1.9,25.2,23.3,50.4,46.5,75.6,69.8,4.4,4,4.3,7.2-.1,11.3-25.1,23.2-50.2,46.3-75.3,69.5-2.1,2-4.4,3.4-7.4,2.1-3.1-1.3-3.9-3.8-3.9-7,0-10.2-.1-20.4.1-30.7,0-3-.6-3.9-3.8-3.9-29.1.1-58.1,0-87.2,0h0ZM197.5,121.4v25.2c0,4.9-4,9-9,9-57.7,0-115.5,0-173.2,0-2.8,0-3.5.6-3.4,3.4.2,13.5.2,26.9,0,40.4,0,3.4.9,4.2,4.2,4.2,57.7-.1,115.5,0,173.2,0s8.2,3.7,8.2,8.2v25.8c.9-.7,1.2-1,1.6-1.3,19.9-18.4,39.7-36.7,59.7-55,1.8-1.7,1.1-2.4-.3-3.7-13.2-12.1-26.4-24.3-39.6-36.5-6.9-6.4-13.9-12.8-21.4-19.7h0Z"/>
</svg>