<svg width="74" height="80" viewBox="0 0 74 80" fill="none" xmlns="http://www.w3.org/2000/svg">
<path fill-rule="evenodd" clip-rule="evenodd" d="M32.4096 2.88602C32.6265 3.84413 32.454 4.84916 31.9301 5.68016C31.4062 6.51116 30.5738 7.1001 29.6158 7.31752C28.8887 7.48295 28.1682 7.67576 27.4556 7.89554C26.9907 8.03908 26.5021 8.08964 26.0176 8.04433C25.5331 7.99903 25.0623 7.85875 24.6321 7.63149C24.2018 7.40423 23.8205 7.09446 23.51 6.71985C23.1994 6.34524 22.9657 5.91314 22.8222 5.44821C22.6787 4.98328 22.6281 4.49463 22.6734 4.01016C22.7187 3.52569 22.859 3.05489 23.0862 2.62463C23.3135 2.19438 23.6233 1.8131 23.9979 1.50256C24.3725 1.19203 24.8046 0.958317 25.2695 0.814775C26.1588 0.538115 27.0604 0.297272 27.9744 0.0922473C28.449 -0.015698 28.9403 -0.0290519 29.4202 0.0529473C29.9 0.134947 30.359 0.310692 30.7709 0.570142C31.1827 0.829591 31.5395 1.16766 31.8206 1.56503C32.1018 1.9624 32.3019 2.41128 32.4096 2.88602ZM40.0054 2.88602C40.2228 1.92802 40.8117 1.09558 41.6427 0.571686C42.4737 0.0477951 43.4788 -0.124655 44.4369 0.0922473C60.9401 3.83457 73.2638 18.5889 73.2638 36.226C73.2638 56.6902 56.6717 73.2786 36.2112 73.2786C18.5704 73.2786 3.81604 60.9586 0.0737172 44.4554C-0.118369 43.5068 0.0683506 42.5207 0.593943 41.7079C1.11953 40.8952 1.94227 40.3204 2.8862 40.1064C3.83012 39.8925 4.8203 40.0564 5.64495 40.563C6.46961 41.0697 7.06327 41.8789 7.29899 42.8177C8.47806 47.9819 11.0195 52.7358 14.6588 56.5849C18.2981 60.4339 22.9023 63.2374 27.9925 64.7036C33.0826 66.1699 38.4727 66.2453 43.6019 64.9221C48.7311 63.599 53.412 60.9255 57.1576 57.1799C60.9033 53.4342 63.5767 48.7533 64.8999 43.6241C66.2231 38.4949 66.1476 33.1048 64.6814 28.0147C63.2151 22.9245 60.4116 18.3203 56.5626 14.681C52.7136 11.0417 47.9597 8.50029 42.7954 7.32122C41.8373 7.10302 41.0051 6.51317 40.4819 5.68142C39.9587 4.84967 39.7873 3.84414 40.0054 2.88602ZM16.2509 9.25166C16.5823 9.60844 16.8401 10.027 17.0096 10.4835C17.179 10.94 17.2569 11.4254 17.2386 11.912C17.2204 12.3986 17.1064 12.8768 16.9033 13.3193C16.7001 13.7618 16.4117 14.1599 16.0545 14.4909C15.5061 14.9973 14.9788 15.5234 14.4724 16.0694C13.7993 16.7697 12.8781 17.1778 11.9071 17.2056C10.9361 17.2335 9.99302 16.8789 9.28089 16.2183C8.56876 15.5576 8.14454 14.6437 8.09957 13.6734C8.0546 12.7031 8.39248 11.7539 9.04046 11.0302C9.67036 10.3484 10.3274 9.69012 11.0117 9.05528C11.3684 8.72392 11.787 8.46612 12.2435 8.29664C12.7 8.12715 13.1854 8.04931 13.672 8.06754C14.1586 8.08578 14.6368 8.19975 15.0793 8.40293C15.5218 8.60611 15.9199 8.89452 16.2509 9.25166ZM36.2075 13.9944C37.1902 13.9944 38.1326 14.3848 38.8275 15.0797C39.5224 15.7745 39.9127 16.717 39.9127 17.6997V34.692L49.9429 44.7222C50.6178 45.421 50.9913 46.3569 50.9829 47.3285C50.9744 48.3 50.5847 49.2293 49.8978 49.9163C49.2108 50.6033 48.2814 50.9929 47.3099 51.0014C46.3384 51.0098 45.4025 50.6364 44.7036 49.9614L33.5878 38.8456C32.8929 38.1509 32.5024 37.2086 32.5022 36.226V17.6997C32.5022 16.717 32.8926 15.7745 33.5875 15.0797C34.2823 14.3848 35.2248 13.9944 36.2075 13.9944ZM5.42783 22.8426C6.36671 23.1321 7.15216 23.7827 7.61145 24.6512C8.07074 25.5198 8.16626 26.5352 7.87701 27.4742C7.65723 28.1867 7.46442 28.9073 7.29899 29.6343C7.06327 30.5731 6.46961 31.3823 5.64495 31.889C4.8203 32.3956 3.83012 32.5595 2.8862 32.3456C1.94227 32.1316 1.11953 31.5568 0.593943 30.7441C0.0683506 29.9313 -0.118369 28.9452 0.0737172 27.9966C0.281212 27.0826 0.522055 26.181 0.796245 25.2918C1.08577 24.3529 1.73635 23.5674 2.6049 23.1081C3.47345 22.6488 4.48886 22.5533 5.42783 22.8426Z" fill="black"/>
</svg>
