<svg width="68" height="89" viewBox="0 0 68 89" fill="none" xmlns="http://www.w3.org/2000/svg">
<path d="M59.5 29.6667H55.25V21.1905C55.25 9.49333 45.73 0 34 0C22.27 0 12.75 9.49333 12.75 21.1905V29.6667H8.5C3.825 29.6667 0 33.481 0 38.1429V80.5238C0 85.1857 3.825 89 8.5 89H59.5C64.175 89 68 85.1857 68 80.5238V38.1429C68 33.481 64.175 29.6667 59.5 29.6667ZM34 67.8095C29.325 67.8095 25.5 63.9952 25.5 59.3333C25.5 54.6714 29.325 50.8571 34 50.8571C38.675 50.8571 42.5 54.6714 42.5 59.3333C42.5 63.9952 38.675 67.8095 34 67.8095ZM21.25 29.6667V21.1905C21.25 14.1552 26.945 8.47619 34 8.47619C41.055 8.47619 46.75 14.1552 46.75 21.1905V29.6667H21.25Z" fill="black"/>
</svg>
