<svg width="88" height="85" viewBox="0 0 88 85" fill="none" xmlns="http://www.w3.org/2000/svg">
<path fill-rule="evenodd" clip-rule="evenodd" d="M43.9853 4.35262e-06C41.9557 -0.000759184 39.9517 0.453026 38.1207 1.32799C36.2897 2.20296 34.6782 3.47687 33.4048 5.05604C31.0672 3.80803 28.4578 3.1547 25.8075 3.1538C16.2067 3.1538 9.06693 11.2845 9.22827 20.2857C3.77227 23.0321 3.49681e-07 28.6333 3.49681e-07 35.1871C3.49681e-07 41.7145 2.816 45.7652 5.7904 48.1305C7.01067 49.1007 8.2192 49.7631 9.196 50.2086C9.11387 59.1571 16.236 67.191 25.7781 67.191C28.5531 67.191 31.1285 66.4935 33.3901 65.2947C34.6635 66.8715 36.2741 68.1434 38.1037 69.017C39.9333 69.8906 41.9355 70.3438 43.9633 70.3432C45.991 70.3426 47.9929 69.8884 49.8221 69.0137C51.6512 68.1391 53.2611 66.8663 54.5336 65.2888C56.8712 66.5368 59.4806 67.1901 62.1309 67.191C71.7288 67.191 78.8685 59.0721 78.7131 50.0738C84.1984 47.3479 88 41.7497 88 35.1871C88 28.6597 85.184 24.609 82.2096 22.2436C81.1631 21.4152 80.0195 20.7174 78.804 20.1655C78.8861 11.2171 71.764 3.18311 62.2219 3.18311C59.5658 3.18021 56.9501 3.83262 54.6069 5.08242C53.3303 3.49461 51.7131 2.21357 49.8747 1.3339C48.0363 0.454225 46.0237 -0.00162502 43.9853 4.35262e-06ZM36.9541 10.3583C37.5768 9.01824 38.5691 7.88345 39.8145 7.08707C41.0599 6.29068 42.5067 5.86573 43.9853 5.86207C47.1005 5.86207 49.7816 7.67931 51.0869 10.4169C51.2776 10.8163 51.5564 11.1673 51.9022 11.4437C52.248 11.72 52.652 11.9146 53.0838 12.0127C53.5156 12.1109 53.964 12.11 54.3954 12.0103C54.8269 11.9106 55.2301 11.7145 55.5749 11.4369C57.4476 9.89653 59.7963 9.05144 62.2219 9.04518C68.8072 9.04518 73.8085 15.1535 72.8112 21.6603C72.73 22.1873 72.7941 22.7264 72.9967 23.2196C73.1993 23.7129 73.5327 24.1415 73.9611 24.4595C74.2045 24.6412 74.4245 24.7467 74.4832 24.7731C74.6387 24.8464 74.7765 24.8962 74.8235 24.9138L75.0992 25.0076L75.1696 25.031C75.3964 25.1033 75.6839 25.2108 76.032 25.3535C76.736 25.6466 77.6512 26.1097 78.5547 26.8278C80.2619 28.1878 82.1333 30.6088 82.1333 35.1871C82.1333 39.9353 79.0357 43.9597 74.6827 45.4076C74.0229 45.6275 73.4627 46.0744 73.1022 46.6688C72.7417 47.2631 72.6043 47.966 72.7144 48.6522C73.7528 55.1738 68.7427 61.329 62.1339 61.329C59.6435 61.329 57.3643 60.4233 55.4664 58.9255C55.1192 58.6508 54.7143 58.4582 54.2821 58.3621C53.8498 58.2661 53.4014 58.2691 52.9704 58.3709C52.5394 58.4727 52.1371 58.6706 51.7937 58.95C51.4502 59.2293 51.1745 59.5827 50.9872 59.9836C50.3649 61.3242 49.3729 62.4596 48.1274 63.2565C46.882 64.0535 45.4349 64.4789 43.956 64.4828C40.8701 64.4828 38.1949 62.6626 36.916 59.969C36.7264 59.5687 36.4486 59.2165 36.1032 58.9389C35.7579 58.6614 35.3541 58.4656 34.9222 58.3663C34.4903 58.267 34.0415 58.2668 33.6095 58.3657C33.1775 58.4646 32.7736 58.66 32.428 58.9372C30.5545 60.4782 28.2047 61.3234 25.7781 61.329C19.1928 61.329 14.1915 55.2207 15.1888 48.7138C15.27 48.1869 15.2059 47.6477 15.0033 47.1545C14.8007 46.6613 14.4673 46.2326 14.0389 45.9147C13.8763 45.7923 13.7013 45.6872 13.5168 45.601C13.4064 45.5471 13.2928 45.5001 13.1765 45.4604L12.9008 45.3666L12.8304 45.3431C12.5388 45.2469 12.2511 45.1394 11.968 45.0207C11.0628 44.6485 10.2138 44.1523 9.44533 43.5464C7.74107 42.1835 5.86667 39.7654 5.86667 35.1871C5.86667 30.4271 8.94667 26.4028 13.2763 24.9285C13.9305 24.7056 14.485 24.259 14.8418 23.6676C15.1987 23.0761 15.3351 22.3777 15.2269 21.6955C14.1885 15.171 19.1957 9.01587 25.8075 9.01587C28.2979 9.01587 30.5771 9.92156 32.4749 11.4193C32.8223 11.6939 33.2274 11.8864 33.6598 11.9822C34.0922 12.0781 34.5407 12.0749 34.9717 11.9728C35.4027 11.8707 35.8049 11.6724 36.1483 11.3928C36.4916 11.1132 36.7671 10.7595 36.9541 10.3583ZM10.2667 64.4828C8.91843 64.4828 7.58339 64.7481 6.33778 65.2637C5.09218 65.7792 3.96039 66.5348 3.00704 67.4874C2.05369 68.44 1.29745 69.5709 0.781504 70.8156C0.265555 72.0602 0 73.3942 0 74.7414C0 76.0886 0.265555 77.4226 0.781504 78.6672C1.29745 79.9118 2.05369 81.0427 3.00704 81.9953C3.96039 82.9479 5.09218 83.7036 6.33778 84.2191C7.58339 84.7346 8.91843 85 10.2667 85C12.9896 85 15.6009 83.9192 17.5263 81.9953C19.4517 80.0715 20.5333 77.4621 20.5333 74.7414C20.5333 72.0206 19.4517 69.4113 17.5263 67.4874C15.6009 65.5636 12.9896 64.4828 10.2667 64.4828ZM5.86667 74.7414C5.86667 73.5753 6.33024 72.4571 7.1554 71.6326C7.98056 70.808 9.09971 70.3448 10.2667 70.3448C11.4336 70.3448 12.5528 70.808 13.3779 71.6326C14.2031 72.4571 14.6667 73.5753 14.6667 74.7414C14.6667 75.9074 14.2031 77.0257 13.3779 77.8502C12.5528 78.6747 11.4336 79.1379 10.2667 79.1379C9.09971 79.1379 7.98056 78.6747 7.1554 77.8502C6.33024 77.0257 5.86667 75.9074 5.86667 74.7414Z" fill="black"/>
</svg>
